<?xml version="1.0" encoding="UTF-8"?>
<svg id="Layer_1" data-name="Layer 1" xmlns="http://www.w3.org/2000/svg" viewBox="0 0 20 25">
  <path d="m0,12.53C0,9.27,0,6.01,0,2.75c0-.61.12-1.19.48-1.7.34-.48.81-.77,1.37-.91C2.23.04,2.61,0,2.99,0,6.11,0,9.23,0,12.35,0c.09,0,.16.03.22.09,2.03,1.98,4.01,4,6.02,6,.45.45.87.93,1.34,1.37.04.04.07.09.06.15,0,.02,0,.05,0,.07,0,4.88,0,9.75,0,14.63,0,.66-.17,1.26-.59,1.79-.37.46-.87.71-1.44.83-.33.07-.66.08-.99.08-4.74,0-9.47,0-14.21,0-.51,0-1.01-.07-1.47-.32-.66-.36-1.05-.92-1.22-1.63C.02,22.78,0,22.53,0,22.26c0-3.24,0-6.49,0-9.73Zm2.5-.04c0,3.3,0,6.59,0,9.89,0,.1.03.12.12.12,4.92,0,9.84,0,14.76,0,.09,0,.12-.02.12-.12,0-4.5,0-9.01,0-13.51,0-.11-.03-.12-.13-.12-2,0-4.01,0-6.01,0-.09,0-.11-.03-.11-.11,0-2.01,0-4.02,0-6.02,0-.09-.02-.12-.12-.12-2.84,0-5.68,0-8.52,0-.1,0-.11.03-.11.12,0,3.29,0,6.58,0,9.87Z"/>
  <path d="m11.15,10.8c-.03.42-.11.91-.22,1.39-.09.38-.18.77-.3,1.14-.07.19-.04.37.07.55.28.47.58.93.89,1.38.08.12.18.15.31.14.44-.04.88-.07,1.32-.03.43.03.84.12,1.22.34.34.2.64.59.55,1.04-.09.49-.51,1.12-1.09,1.2-.26.04-.52-.01-.76-.12-.61-.27-1.13-.67-1.59-1.16-.06-.06-.12-.12-.17-.19-.05-.06-.1-.08-.17-.06-.59.1-1.17.22-1.74.39-.25.07-.41.22-.54.45-.32.59-.67,1.17-1.11,1.69-.31.36-.64.71-1.09.9-.23.1-.47.18-.73.15-.4-.04-.66-.3-.84-.64-.22-.4-.2-.78.03-1.17.3-.49.72-.85,1.2-1.13.55-.32,1.14-.56,1.74-.76.27-.09.44-.23.56-.51.29-.66.55-1.34.79-2.02.05-.15.03-.28-.04-.42-.39-.77-.71-1.56-.88-2.41-.09-.45-.11-.89.05-1.34.31-.84,1.24-.97,1.78-.62.34.22.53.55.64.93.08.27.11.54.11.89Z"/>
</svg>