<?xml version="1.0" encoding="UTF-8"?>
<svg id="Layer_1" data-name="Layer 1" xmlns="http://www.w3.org/2000/svg" viewBox="0 0 25 23.68">
  <path d="m12.5,23.68c-3.69,0-7.37,0-11.06,0-.11,0-.13-.03-.13-.13,0-1.63,0-3.26,0-4.89,0-.51.08-1.01.32-1.47.37-.7.95-1.11,1.71-1.28.38-.08.76-.12,1.15-.12.48,0,.97,0,1.45,0,.13,0,.12,0,.07-.11-.4-.86-.81-1.71-1.2-2.58-.49-1.09-.92-2.21-1.4-3.31-.08-.18-.16-.36-.24-.53-.05-.12-.12-.2-.26-.23-1.5-.36-2.41-1.33-2.81-2.8-.23-.86-.14-1.69.19-2.5.48-1.15,1.34-1.9,2.54-2.24.62-.18,1.24-.21,1.88-.08,1.1.23,1.94.81,2.5,1.78.07.12.14.25.22.37.06.09.11.19.11.3,0,.06.04.09.09.09.02,0,.04,0,.06,0,1.91,0,3.82,0,5.73,0,.12,0,.19-.05.25-.15.2-.36.53-.61.88-.81.31-.18.66-.28,1.02-.33.13-.02.24-.08.34-.17.55-.55,1.09-1.1,1.64-1.64.21-.21.43-.41.64-.61.16-.16.35-.22.57-.22.41,0,.83,0,1.24,0,1.62,0,3.23,0,4.85,0,.09,0,.12.03.12.12,0,.8,0,1.6,0,2.4,0,.09-.02.11-.11.11-1.77,0-3.54,0-5.3,0-.09,0-.16.03-.22.1-.71.77-1.47,1.49-2.19,2.24-.08.08-.17.16-.25.25-.05.05-.05.08,0,.13.23.22.46.45.68.67.59.58,1.13,1.2,1.72,1.78.07.07.14.1.24.1,1.77,0,3.54,0,5.31,0,.09,0,.12.02.12.12,0,.8,0,1.6,0,2.4,0,.08-.01.12-.11.12-2.09,0-4.17,0-6.26,0-.11,0-.22-.02-.3-.11-.35-.36-.73-.69-1.07-1.05-.34-.36-.68-.72-1.03-1.08-.4-.4-.4-.4-.95-.52-.54-.12-1-.39-1.38-.78-.09-.09-.16-.19-.21-.3-.03-.08-.09-.11-.17-.11-1.94,0-3.88,0-5.83,0-.05,0-.1-.01-.11.06-.04.27-.21.47-.34.7-.15.26-.34.5-.55.72-.08.09-.1.16-.05.27.4.87.79,1.74,1.18,2.62.28.63.52,1.28.81,1.91.35.77.65,1.56,1,2.33.08.18.2.35.24.55,0,.03.03.05.07.05.04,0,.08,0,.11,0,3.58,0,7.16,0,10.74,0,.52,0,1.03.08,1.51.33.75.4,1.15,1.05,1.3,1.87.07.39.09.79.08,1.19,0,1.46,0,2.92,0,4.38,0,.1-.02.13-.13.13-3.69,0-7.37,0-11.06,0Zm.01-5.26c-2.82,0-5.63,0-8.45,0-.09,0-.12.02-.12.12,0,.8,0,1.61,0,2.41,0,.08.02.1.1.1,5.63,0,11.27,0,16.9,0,.08,0,.1-.02.1-.1,0-.8,0-1.6,0-2.4,0-.1-.02-.13-.13-.13-2.81,0-5.61,0-8.42,0ZM2.62,5.13c-.02.15,0,.28.01.41.06.4.24.72.63.9.31.14.63.16.96.12.47-.06.87-.41.98-.87.08-.33.06-.66-.04-.98-.09-.31-.28-.52-.58-.65-.24-.11-.5-.15-.76-.12-.49.04-.88.24-1.11.71-.08.16-.1.33-.1.49Z"/>
</svg>