<?xml version="1.0" encoding="UTF-8"?>
<svg id="Layer_1" data-name="Layer 1" xmlns="http://www.w3.org/2000/svg" viewBox="0 0 24.68 18.61">
  <path d="m11.29,18.61c-.25,0-.5-.01-.74,0-.2.01-.25-.04-.23-.25.13-1.16.24-2.33.37-3.5.27-2.48.53-4.96.82-7.44.25-2.15.44-4.3.75-6.44.03-.2.07-.41.07-.61,0-.3.12-.39.41-.37.49.02.99.01,1.49,0,.16,0,.19.04.17.2-.15,1.28-.29,2.56-.43,3.85-.22,2.01-.45,4.02-.67,6.03-.21,1.87-.41,3.74-.62,5.61-.1.91-.22,1.81-.32,2.72-.02.16-.07.2-.21.2-.28,0-.56,0-.84,0Z"/>
  <path d="m24.68,9.33c-.05.06-.11.13-.17.19-.6.6-1.19,1.21-1.79,1.81-1.19,1.19-2.38,2.37-3.56,3.56-.21.22-.35.31-.59,0-.28-.34-.62-.63-.95-.91-.21-.18-.21-.28-.01-.47,1.22-1.21,2.44-2.43,3.65-3.65q.55-.55,0-1.11c-1.21-1.21-2.41-2.43-3.62-3.63-.2-.19-.18-.3.02-.47.35-.31.69-.65,1-1.01.16-.17.26-.17.41-.01.41.41.82.82,1.23,1.23,1.39,1.39,2.78,2.79,4.17,4.18.08.08.18.15.22.29Z"/>
  <path d="m7.22,13.71c0,.11-.08.15-.13.2-.37.37-.75.74-1.11,1.12-.11.11-.17.14-.3.01-1.85-1.86-3.71-3.72-5.56-5.57-.13-.13-.16-.2,0-.35,1.83-1.82,3.66-3.64,5.48-5.47.17-.17.26-.21.45,0,.33.37.68.72,1.05,1.05.16.15.15.23,0,.38-1.29,1.29-2.58,2.59-3.87,3.89-.34.35-.34.34-.01.67,1.29,1.3,2.58,2.59,3.87,3.89.06.06.11.13.15.18Z"/>
</svg>