<?xml version="1.0" encoding="UTF-8"?>
<svg id="Layer_1" data-name="Layer 1" xmlns="http://www.w3.org/2000/svg" viewBox="0 0 25.01 25">
  <path d="m7.5,16.87c0,2.67,0,5.34,0,8.01,0,.1-.02.12-.12.12-.76,0-1.51,0-2.27,0-.1,0-.12-.03-.12-.12,0-2.42,0-4.85,0-7.27,0-.09-.02-.12-.12-.12-.76,0-1.51,0-2.27,0-.09,0-.12.02-.12.12,0,2.42,0,4.85,0,7.27,0,.1-.03.12-.12.12-.76,0-1.52,0-2.29,0C.02,25,0,24.98,0,24.9c0-5.32,0-10.63,0-15.95,0-.58.11-1.14.45-1.64.38-.55.91-.85,1.55-.98.34-.07.69-.1,1.04-.1,3.95,0,7.89,0,11.84,0,.1,0,.12.03.12.12,0,.76,0,1.52,0,2.28,0,.08-.02.11-.11.11-2.43,0-4.85,0-7.28,0-.11,0-.12.03-.12.13,0,2.67,0,5.33,0,8Zm-5-5c0,1.01,0,2.02,0,3.03,0,.08.02.1.1.1.77,0,1.54,0,2.31,0,.08,0,.1-.02.1-.1,0-2.02,0-4.03,0-6.05,0-.08-.02-.11-.1-.11-.77,0-1.53,0-2.3,0-.09,0-.1.03-.1.11,0,1.01,0,2.01,0,3.02Z"/>
  <path d="m17.51,17.49c-2.47,0-4.93,0-7.4,0-.08,0-.11-.02-.11-.11,0-.77,0-1.53,0-2.3,0-.08.02-.1.1-.1,1.18,0,2.36,0,3.55,0,.09,0,.11-.02.11-.11,0-.77,0-1.53,0-2.3,0-.08.02-.1.1-.1,1.6,0,3.2,0,4.81,0,.08,0,.1.02.1.1,0,.77,0,1.54,0,2.31,0,.08.02.1.1.1.77,0,1.54,0,2.32,0,.07,0,.09-.01.09-.09,0-3.69,0-7.39,0-11.08,0-.1-.05-.09-.11-.09-4.08,0-8.16,0-12.24,0-.02,0-.04,0-.06,0-.07.01-.1-.02-.1-.09,0-.77,0-1.54,0-2.32,0-.08.03-.09.1-.09,4.26,0,8.51,0,12.77,0,.49,0,.96.11,1.36.41.42.31.63.74.72,1.24.04.22.06.43.06.65,0,3.78,0,7.55,0,11.33,0,.09.02.13.12.12.35,0,.69,0,1.04,0,.08,0,.1.03.1.1,0,.77,0,1.53,0,2.3,0,.09-.02.11-.11.11-2.47,0-4.93,0-7.4,0Z"/>
  <path d="m6.25,2.48c-.04,1.4-1.07,2.51-2.55,2.49-1.6-.02-2.49-1.34-2.44-2.56C1.3,1.2,2.21-.02,3.79,0c1.39.02,2.41,1.07,2.46,2.48Z"/>
</svg>